<svg xmlns="http://www.w3.org/2000/svg" xmlns:xlink="http://www.w3.org/1999/xlink" id="processonSvg1000" viewBox="125.20390800992118 133.33333333333337 1116.4627586567456 796.6666666666666" width="1116.4627586567456" height="796.6666666666666"><defs id="ProcessOnDefs1001"><marker id="ProcessOnMarker1045" markerUnits="userSpaceOnUse" orient="auto" markerWidth="20.609529741924973" markerHeight="10.888175666885001" viewBox="-2.3047648709624866 -1.5914908829822711 20.609529741924973 10.888175666885001" refX="16.0" refY="3.8525969504602293"><path id="ProcessOnPath1046" d="M0 3.8525969504602293L8.0 0L16.0 3.8525969504602293L8.0 7.705193900920459Z" stroke="#323232" stroke-width="2.0" fill="#323232"/></marker><marker id="ProcessOnMarker1047" markerUnits="userSpaceOnUse" orient="auto" markerWidth="14.289086868996552" markerHeight="19.055054660878554" viewBox="-0.5877852522924731 -0.8090169943749475 14.289086868996552 19.055054660878554" refX="12.0" refY="8.71851033606433"><path id="ProcessOnPath1048" d="M0 0L12.0 8.71851033606433L0 17.43702067212866" stroke="#323232" stroke-width="2.0" fill="none" transform="matrix(1.0,0.0,0.0,1.0,0.0,0.0)"/></marker><marker id="ProcessOnMarker1051" markerUnits="userSpaceOnUse" orient="auto" markerWidth="20.609529741924973" markerHeight="10.888175666885001" viewBox="-2.3047648709624866 -1.5914908829822711 20.609529741924973 10.888175666885001" refX="16.0" refY="3.8525969504602293"><path id="ProcessOnPath1052" d="M0 3.8525969504602293L8.0 0L16.0 3.8525969504602293L8.0 7.705193900920459Z" stroke="#323232" stroke-width="2.0" fill="#fff"/></marker><marker id="ProcessOnMarker1053" markerUnits="userSpaceOnUse" orient="auto" markerWidth="14.289086868996552" markerHeight="19.055054660878554" viewBox="-0.5877852522924731 -0.8090169943749475 14.289086868996552 19.055054660878554" refX="12.0" refY="8.71851033606433"><path id="ProcessOnPath1054" d="M0 0L12.0 8.71851033606433L0 17.43702067212866" stroke="#323232" stroke-width="2.0" fill="none" transform="matrix(1.0,0.0,0.0,1.0,0.0,0.0)"/></marker><marker id="ProcessOnMarker1062" markerUnits="userSpaceOnUse" orient="auto" markerWidth="20.609529741924973" markerHeight="10.888175666885001" viewBox="-2.3047648709624866 -1.5914908829822711 20.609529741924973 10.888175666885001" refX="16.0" refY="3.8525969504602293"><path id="ProcessOnPath1063" d="M0 3.8525969504602293L8.0 0L16.0 3.8525969504602293L8.0 7.705193900920459Z" stroke="#323232" stroke-width="2.0" fill="#323232"/></marker><marker id="ProcessOnMarker1064" markerUnits="userSpaceOnUse" orient="auto" markerWidth="14.289086868996552" markerHeight="19.055054660878554" viewBox="-0.5877852522924731 -0.8090169943749475 14.289086868996552 19.055054660878554" refX="12.0" refY="8.71851033606433"><path id="ProcessOnPath1065" d="M0 0L12.0 8.71851033606433L0 17.43702067212866" stroke="#323232" stroke-width="2.0" fill="none" transform="matrix(1.0,0.0,0.0,1.0,0.0,0.0)"/></marker><marker id="ProcessOnMarker1068" markerUnits="userSpaceOnUse" orient="auto" markerWidth="14.289086868996552" markerHeight="19.055054660878554" viewBox="-0.5877852522924731 -0.8090169943749475 14.289086868996552 19.055054660878554" refX="12.0" refY="8.71851033606433"><path id="ProcessOnPath1069" d="M0 0L12.0 8.71851033606433L0 17.43702067212866" stroke="#323232" stroke-width="2.0" fill="none" transform="matrix(1.0,0.0,0.0,1.0,0.0,0.0)"/></marker><marker id="ProcessOnMarker1072" markerUnits="userSpaceOnUse" orient="auto" markerWidth="14.289086868996552" markerHeight="19.055054660878554" viewBox="-0.5877852522924731 -0.8090169943749475 14.289086868996552 19.055054660878554" refX="12.0" refY="8.71851033606433"><path id="ProcessOnPath1073" d="M0 0L12.0 8.71851033606433L0 17.43702067212866" stroke="#323232" stroke-width="2.0" fill="none" transform="matrix(1.0,0.0,0.0,1.0,0.0,0.0)"/></marker><marker id="ProcessOnMarker1091" markerUnits="userSpaceOnUse" orient="auto" markerWidth="14.289086868996552" markerHeight="19.055054660878554" viewBox="-0.5877852522924731 -0.8090169943749475 14.289086868996552 19.055054660878554" refX="12.0" refY="8.71851033606433"><path id="ProcessOnPath1092" d="M0 0L12.0 8.71851033606433L0 17.43702067212866" stroke="#323232" stroke-width="2.0" fill="none" transform="matrix(1.0,0.0,0.0,1.0,0.0,0.0)"/></marker><marker id="ProcessOnMarker1099" markerUnits="userSpaceOnUse" orient="auto" markerWidth="20.609529741924973" markerHeight="10.888175666885001" viewBox="-2.3047648709624866 -1.5914908829822711 20.609529741924973 10.888175666885001" refX="16.0" refY="3.8525969504602293"><path id="ProcessOnPath1100" d="M0 3.8525969504602293L8.0 0L16.0 3.8525969504602293L8.0 7.705193900920459Z" stroke="#323232" stroke-width="2.0" fill="#323232"/></marker><marker id="ProcessOnMarker1101" markerUnits="userSpaceOnUse" orient="auto" markerWidth="14.289086868996552" markerHeight="19.055054660878554" viewBox="-0.5877852522924731 -0.8090169943749475 14.289086868996552 19.055054660878554" refX="12.0" refY="8.71851033606433"><path id="ProcessOnPath1102" d="M0 0L12.0 8.71851033606433L0 17.43702067212866" stroke="#323232" stroke-width="2.0" fill="none" transform="matrix(1.0,0.0,0.0,1.0,0.0,0.0)"/></marker><marker id="ProcessOnMarker1105" markerUnits="userSpaceOnUse" orient="auto" markerWidth="20.609529741924973" markerHeight="10.888175666885001" viewBox="-2.3047648709624866 -1.5914908829822711 20.609529741924973 10.888175666885001" refX="16.0" refY="3.8525969504602293"><path id="ProcessOnPath1106" d="M0 3.8525969504602293L8.0 0L16.0 3.8525969504602293L8.0 7.705193900920459Z" stroke="#323232" stroke-width="2.0" fill="#323232"/></marker><marker id="ProcessOnMarker1107" markerUnits="userSpaceOnUse" orient="auto" markerWidth="14.289086868996552" markerHeight="19.055054660878554" viewBox="-0.5877852522924731 -0.8090169943749475 14.289086868996552 19.055054660878554" refX="12.0" refY="8.71851033606433"><path id="ProcessOnPath1108" d="M0 0L12.0 8.71851033606433L0 17.43702067212866" stroke="#323232" stroke-width="2.0" fill="none" transform="matrix(1.0,0.0,0.0,1.0,0.0,0.0)"/></marker><marker id="ProcessOnMarker1111" markerUnits="userSpaceOnUse" orient="auto" markerWidth="20.609529741924973" markerHeight="10.888175666885001" viewBox="-2.3047648709624866 -1.5914908829822711 20.609529741924973 10.888175666885001" refX="16.0" refY="3.8525969504602293"><path id="ProcessOnPath1112" d="M0 3.8525969504602293L8.0 0L16.0 3.8525969504602293L8.0 7.705193900920459Z" stroke="#323232" stroke-width="2.0" fill="#fff"/></marker><marker id="ProcessOnMarker1113" markerUnits="userSpaceOnUse" orient="auto" markerWidth="14.289086868996552" markerHeight="19.055054660878554" viewBox="-0.5877852522924731 -0.8090169943749475 14.289086868996552 19.055054660878554" refX="12.0" refY="8.71851033606433"><path id="ProcessOnPath1114" d="M0 0L12.0 8.71851033606433L0 17.43702067212866" stroke="#323232" stroke-width="2.0" fill="none" transform="matrix(1.0,0.0,0.0,1.0,0.0,0.0)"/></marker><marker id="ProcessOnMarker1117" markerUnits="userSpaceOnUse" orient="auto" markerWidth="20.609529741924973" markerHeight="10.888175666885001" viewBox="-2.3047648709624866 -1.5914908829822711 20.609529741924973 10.888175666885001" refX="16.0" refY="3.8525969504602293"><path id="ProcessOnPath1118" d="M0 3.8525969504602293L8.0 0L16.0 3.8525969504602293L8.0 7.705193900920459Z" stroke="#323232" stroke-width="2.0" fill="#fff"/></marker><marker id="ProcessOnMarker1119" markerUnits="userSpaceOnUse" orient="auto" markerWidth="14.289086868996552" markerHeight="19.055054660878554" viewBox="-0.5877852522924731 -0.8090169943749475 14.289086868996552 19.055054660878554" refX="12.0" refY="8.71851033606433"><path id="ProcessOnPath1120" d="M0 0L12.0 8.71851033606433L0 17.43702067212866" stroke="#323232" stroke-width="2.0" fill="none" transform="matrix(1.0,0.0,0.0,1.0,0.0,0.0)"/></marker><marker id="ProcessOnMarker1123" markerUnits="userSpaceOnUse" orient="auto" markerWidth="20.609529741924973" markerHeight="10.888175666885001" viewBox="-2.3047648709624866 -1.5914908829822711 20.609529741924973 10.888175666885001" refX="16.0" refY="3.8525969504602293"><path id="ProcessOnPath1124" d="M0 3.8525969504602293L8.0 0L16.0 3.8525969504602293L8.0 7.705193900920459Z" stroke="#323232" stroke-width="2.0" fill="#fff"/></marker><marker id="ProcessOnMarker1125" markerUnits="userSpaceOnUse" orient="auto" markerWidth="14.289086868996552" markerHeight="19.055054660878554" viewBox="-0.5877852522924731 -0.8090169943749475 14.289086868996552 19.055054660878554" refX="12.0" refY="8.71851033606433"><path id="ProcessOnPath1126" d="M0 0L12.0 8.71851033606433L0 17.43702067212866" stroke="#323232" stroke-width="2.0" fill="none" transform="matrix(1.0,0.0,0.0,1.0,0.0,0.0)"/></marker></defs><g id="ProcessOnG1002"><path id="ProcessOnPath1003" d="M125.20390800992118 133.33333333333337H1241.6666666666667V930.0H125.20390800992118V133.33333333333337Z" fill="none"/><g id="ProcessOnG1004"><g id="ProcessOnG1005" transform="matrix(1.0,0.0,0.0,1.0,145.20390800992118,153.33333333333337)" opacity="1.0"><path id="ProcessOnPath1006" d="M0.0 0.0L1076.4627586567456 0.0L1076.4627586567456 756.6666666666666L0.0 756.6666666666666Z" stroke="none" stroke-width="0.0" stroke-dasharray="none" opacity="1.0" fill="#ffffff"/></g><g id="ProcessOnG1007" transform="matrix(1.0,0.0,0.0,1.0,462.36252565290073,667.145794101895)" opacity="1.0"><path id="ProcessOnPath1008" d="M0.0 0.0L576.2089029185279 0.0L576.2089029185279 175.7113487552477L0.0 175.7113487552477Z" stroke="#323232" stroke-width="2.0" stroke-dasharray="none" opacity="1.0" fill="#ffffff"/></g><g id="ProcessOnG1009" transform="matrix(1.0,0.0,0.0,1.0,958.5714285714287,366.4115660949181)" opacity="1.0"><path id="ProcessOnPath1010" d="M0.0 0.0L80.0 0.0L80.0 250.73129104793924L0.0 250.73129104793924Z" stroke="#323232" stroke-width="2.0" stroke-dasharray="none" opacity="1.0" fill="#ffffff"/><g id="ProcessOnG1011" transform="matrix(1.0,0.0,0.0,1.0,10.0,100.99064552396962)"><text id="ProcessOnText1012" fill="#323232" font-size="13" x="29.0" y="13.325" font-family="微软雅黑" font-weight="normal" font-style="normal" text-decoration="none" family="微软雅黑" text-anchor="middle" size="13">Plugin</text><text id="ProcessOnText1013" fill="#323232" font-size="13" x="29.0" y="29.575" font-family="微软雅黑" font-weight="normal" font-style="normal" text-decoration="none" family="微软雅黑" text-anchor="middle" size="13">Interface </text><text id="ProcessOnText1014" fill="#323232" font-size="13" x="29.0" y="45.825" font-family="微软雅黑" font-weight="normal" font-style="normal" text-decoration="none" family="微软雅黑" text-anchor="middle" size="13">Array</text></g></g><g id="ProcessOnG1015" transform="matrix(1.0,0.0,0.0,1.0,473.2216553875236,680.0895037310256)" opacity="1.0"><path id="ProcessOnPath1016" d="M0.0 0.0L554.490643449282 0.0L554.490643449282 41.80052968154991L0.0 41.80052968154991Z" stroke="#323232" stroke-width="2.0" stroke-dasharray="none" opacity="1.0" fill="#ffffff"/><g id="ProcessOnG1017" transform="matrix(1.0,0.0,0.0,1.0,10.0,12.775264840774955)"><text id="ProcessOnText1018" fill="#323232" font-size="13" x="266.245321724641" y="13.325" font-family="微软雅黑" font-weight="normal" font-style="normal" text-decoration="none" family="微软雅黑" text-anchor="middle" size="13">Message Object</text></g></g><g id="ProcessOnG1019" transform="matrix(1.0,0.0,0.0,1.0,473.2216553875236,733.3686642357825)" opacity="1.0"><path id="ProcessOnPath1020" d="M0.0 0.0L177.66905865809892 0.0L177.66905865809892 43.26560848747299L0.0 43.26560848747299Z" stroke="#323232" stroke-width="2.0" stroke-dasharray="none" opacity="1.0" fill="#ffffff"/><g id="ProcessOnG1021" transform="matrix(1.0,0.0,0.0,1.0,10.0,13.507804243736494)"><text id="ProcessOnText1022" fill="#323232" font-size="13" x="77.83452932904946" y="13.325" font-family="微软雅黑" font-weight="normal" font-style="normal" text-decoration="none" family="微软雅黑" text-anchor="middle" size="13">Protocol Interface</text></g></g><g id="ProcessOnG1023" transform="matrix(1.0,0.0,0.0,1.0,661.6324477831148,733.3686642357825)" opacity="1.0"><path id="ProcessOnPath1024" d="M0.0 0.0L177.66905865809892 0.0L177.66905865809892 43.26560848747299L0.0 43.26560848747299Z" stroke="#323232" stroke-width="2.0" stroke-dasharray="none" opacity="1.0" fill="#ffffff"/><g id="ProcessOnG1025" transform="matrix(1.0,0.0,0.0,1.0,10.0,13.507804243736494)"><text id="ProcessOnText1026" fill="#323232" font-size="13" x="77.83452932904946" y="13.325" font-family="微软雅黑" font-weight="normal" font-style="normal" text-decoration="none" family="微软雅黑" text-anchor="middle" size="13">Codec Interface</text></g></g><g id="ProcessOnG1027" transform="matrix(1.0,0.0,0.0,1.0,850.0432401787068,733.3686642357825)" opacity="1.0"><path id="ProcessOnPath1028" d="M0.0 0.0L177.66905865809892 0.0L177.66905865809892 43.26560848747299L0.0 43.26560848747299Z" stroke="#323232" stroke-width="2.0" stroke-dasharray="none" opacity="1.0" fill="#ffffff"/><g id="ProcessOnG1029" transform="matrix(1.0,0.0,0.0,1.0,10.0,13.507804243736494)"><text id="ProcessOnText1030" fill="#323232" font-size="13" x="77.83452932904946" y="13.325" font-family="微软雅黑" font-weight="normal" font-style="normal" text-decoration="none" family="微软雅黑" text-anchor="middle" size="13">XferPipe Interface Array</text></g></g><g id="ProcessOnG1031" transform="matrix(1.0,0.0,0.0,1.0,520.1921936692362,190.13736263736135)" opacity="1.0"><path id="ProcessOnPath1032" d="M0.0 0.0L326.48618733811554 0.0L326.48618733811554 53.076923076924324L0.0 53.076923076924324Z" stroke="none" stroke-width="0.0" stroke-dasharray="none" opacity="1.0" fill="none"/><g id="ProcessOnG1033" transform="matrix(1.0,0.0,0.0,1.0,0.0,16.538461538462162)"><text id="ProcessOnText1034" fill="#323232" font-size="16" x="162.24309366905777" y="16.4" font-family="微软雅黑" font-weight="bold" font-style="normal" text-decoration="none" family="微软雅黑" text-anchor="middle" size="16">teleport module diagram</text></g></g><g id="ProcessOnG1035" transform="matrix(1.0,0.0,0.0,1.0,473.2216553875236,787.9657416128318)" opacity="1.0"><path id="ProcessOnPath1036" d="M0.0 0.0L554.490643449282 0.0L554.490643449282 43.05958178038956L0.0 43.05958178038956Z" stroke="#323232" stroke-width="2.0" stroke-dasharray="none" opacity="1.0" fill="#ffffff"/><g id="ProcessOnG1037" transform="matrix(1.0,0.0,0.0,1.0,10.0,13.404790890194779)"><text id="ProcessOnText1038" fill="#000000" font-size="13" x="266.245321724641" y="13.325" font-family="微软雅黑" font-weight="normal" font-style="normal" text-decoration="none" family="微软雅黑" text-anchor="middle" size="13">TCP Connection Interface</text></g></g><g id="ProcessOnG1039" transform="matrix(1.0,0.0,0.0,1.0,327.0637891060306,366.4115660949181)" opacity="1.0"><path id="ProcessOnPath1040" d="M0.0 0.0L547.2219251796837 0.0L547.2219251796837 42.15986247651051L0.0 42.15986247651051Z" stroke="#323232" stroke-width="2.0" stroke-dasharray="none" opacity="1.0" fill="#ffffff"/><g id="ProcessOnG1041" transform="matrix(1.0,0.0,0.0,1.0,10.0,12.954931238255256)"><text id="ProcessOnText1042" fill="#323232" font-size="13" x="262.61096258984185" y="13.325" font-family="微软雅黑" font-weight="normal" font-style="normal" text-decoration="none" family="微软雅黑" text-anchor="middle" size="13">Session Object</text></g></g><g id="ProcessOnG1043"><path id="ProcessOnPath1044" d="M350.18244619634163 425.88708038976176L350.18244619634163 537.3640548103472L368.1132982115747 537.3640548103472L368.1132982115747 667.145794101895" stroke="#323232" stroke-width="2.0" stroke-dasharray="none" fill="none" marker-start="url(#ProcessOnMarker1045)" marker-end="url(#ProcessOnMarker1047)"/></g><g id="ProcessOnG1049"><path id="ProcessOnPath1050" d="M432.8571428571429 425.4476220138197L432.8571428571429 529.6569598461836L461.68925504705095 529.6569598461836" stroke="#323232" stroke-width="2.0" stroke-dasharray="none" fill="none" marker-start="url(#ProcessOnMarker1051)" marker-end="url(#ProcessOnMarker1053)"/></g><g id="ProcessOnG1055" transform="matrix(1.0,0.0,0.0,1.0,327.65516785172065,667.145794101895)" opacity="1.0"><path id="ProcessOnPath1056" d="M0.0 0.0L80.91626071970796 0.0L80.91626071970796 175.71134875524785L0.0 175.71134875524785Z" stroke="#323232" stroke-width="2.0" stroke-dasharray="none" opacity="1.0" fill="#ffffff"/><g id="ProcessOnG1057" transform="matrix(1.0,0.0,0.0,1.0,10.0,71.60567437762393)"><text id="ProcessOnText1058" fill="#323232" font-size="13" x="29.458130359853982" y="13.325" font-family="微软雅黑" font-weight="normal" font-style="normal" text-decoration="none" family="微软雅黑" text-anchor="middle" size="13">Socket</text><text id="ProcessOnText1059" fill="#323232" font-size="13" x="29.458130359853982" y="29.575" font-family="微软雅黑" font-weight="normal" font-style="normal" text-decoration="none" family="微软雅黑" text-anchor="middle" size="13">Interface</text></g></g><g id="ProcessOnG1060"><path id="ProcessOnPath1061" d="M426.8761934423911 755.001468479519L435.4669771121647 755.001468479519L435.4669771121647 755.001468479519L462.36252565290073 755.001468479519" stroke="#323232" stroke-width="2.0" stroke-dasharray="none" fill="none" marker-start="url(#ProcessOnMarker1062)" marker-end="url(#ProcessOnMarker1064)"/></g><g id="ProcessOnG1066"><path id="ProcessOnPath1067" d="M792.0 529.6569598461838L750.4701537674358 529.6569598461838L750.4701537674358 529.6569598461838L708.9403075348716 529.6569598461838" stroke="#323232" stroke-width="2.0" stroke-dasharray="none" fill="none" marker-end="url(#ProcessOnMarker1068)"/></g><g id="ProcessOnG1070"><path id="ProcessOnPath1071" d="M629.1464141214843 529.6569598461838L585.314781290961 529.6569598461838L585.314781290961 529.6569598461836L541.4831484604376 529.6569598461836" stroke="#323232" stroke-width="2.0" stroke-dasharray="10.0 4.0" fill="none" marker-end="url(#ProcessOnMarker1072)"/></g><g id="ProcessOnG1074" transform="matrix(1.0,0.0,0.0,1.0,461.68925504705095,442.1710625495102)" opacity="1.0"><path id="ProcessOnPath1075" d="M0.0 0.0L79.79389341338701 0.0L79.79389341338701 174.9717945933469L0.0 174.9717945933469Z" stroke="#323232" stroke-width="2.0" stroke-dasharray="none" opacity="1.0" fill="#ffffff"/><g id="ProcessOnG1076" transform="matrix(1.0,0.0,0.0,1.0,10.0,71.23589729667346)"><text id="ProcessOnText1077" fill="#323232" font-size="13" x="28.896946706693505" y="13.325" font-family="微软雅黑" font-weight="normal" font-style="normal" text-decoration="none" family="微软雅黑" text-anchor="middle" size="13">Context</text><text id="ProcessOnText1078" fill="#323232" font-size="13" x="28.896946706693505" y="29.575" font-family="微软雅黑" font-weight="normal" font-style="normal" text-decoration="none" family="微软雅黑" text-anchor="middle" size="13">Interface</text></g></g><g id="ProcessOnG1079" transform="matrix(1.0,0.0,0.0,1.0,629.1464141214843,442.1710625495103)" opacity="1.0"><path id="ProcessOnPath1080" d="M0.0 0.0L79.79389341338701 0.0L79.79389341338701 174.9717945933469L0.0 174.9717945933469Z" stroke="#323232" stroke-width="2.0" stroke-dasharray="none" opacity="1.0" fill="#ffffff"/><g id="ProcessOnG1081" transform="matrix(1.0,0.0,0.0,1.0,10.0,71.23589729667346)"><text id="ProcessOnText1082" fill="#323232" font-size="13" x="28.896946706693505" y="13.325" font-family="微软雅黑" font-weight="normal" font-style="normal" text-decoration="none" family="微软雅黑" text-anchor="middle" size="13">Handler </text><text id="ProcessOnText1083" fill="#323232" font-size="13" x="28.896946706693505" y="29.575" font-family="微软雅黑" font-weight="normal" font-style="normal" text-decoration="none" family="微软雅黑" text-anchor="middle" size="13">Object</text></g></g><g id="ProcessOnG1084" transform="matrix(1.0,0.0,0.0,1.0,792.0,442.1710625495103)" opacity="1.0"><path id="ProcessOnPath1085" d="M0.0 0.0L82.28571428571422 0.0L82.28571428571422 174.971794593347L0.0 174.971794593347Z" stroke="#323232" stroke-width="2.0" stroke-dasharray="none" opacity="1.0" fill="#ffffff"/><g id="ProcessOnG1086" transform="matrix(1.0,0.0,0.0,1.0,10.0,71.2358972966735)"><text id="ProcessOnText1087" fill="#323232" font-size="13" x="30.14285714285711" y="13.325" font-family="微软雅黑" font-weight="normal" font-style="normal" text-decoration="none" family="微软雅黑" text-anchor="middle" size="13">Router </text><text id="ProcessOnText1088" fill="#323232" font-size="13" x="30.14285714285711" y="29.575" font-family="微软雅黑" font-weight="normal" font-style="normal" text-decoration="none" family="微软雅黑" text-anchor="middle" size="13">Structure</text></g></g><g id="ProcessOnG1089"><path id="ProcessOnPath1090" d="M793.5675127407715 407.58231551879925L793.5675127407715 424.87668903415477L833.1428571428572 424.87668903415477L833.1428571428572 442.1710625495103" stroke="#323232" stroke-width="2.0" stroke-dasharray="none" fill="none" marker-end="url(#ProcessOnMarker1091)"/></g><g id="ProcessOnG1093" transform="matrix(1.0,0.0,0.0,1.0,327.30034060430677,265.8649173955307)" opacity="1.0"><path id="ProcessOnPath1094" d="M0.0 0.0L709.5032014118118 0.0L709.5032014118118 42.7065111758979L0.0 42.7065111758979Z" stroke="#323232" stroke-width="2.0" stroke-dasharray="none" opacity="1.0" fill="#ffffff"/><g id="ProcessOnG1095" transform="matrix(1.0,0.0,0.0,1.0,10.0,13.22825558794895)"><text id="ProcessOnText1096" fill="#323232" font-size="13" x="343.7516007059059" y="13.325" font-family="微软雅黑" font-weight="normal" font-style="normal" text-decoration="none" family="微软雅黑" text-anchor="middle" size="13">Peer(server/client)</text></g></g><g id="ProcessOnG1097"><path id="ProcessOnPath1098" d="M352.0 326.30476487096246L352.0 337.205783047459L600.6747516958725 337.205783047459L600.6747516958725 366.4115660949181" stroke="#323232" stroke-width="2.0" stroke-dasharray="none" fill="none" marker-start="url(#ProcessOnMarker1099)" marker-end="url(#ProcessOnMarker1101)"/></g><g id="ProcessOnG1103"><path id="ProcessOnPath1104" d="M1010.0 326.30476487096246L1010.0 337.205783047459L998.5714285714288 337.205783047459L998.5714285714288 366.4115660949181" stroke="#323232" stroke-width="2.0" stroke-dasharray="none" fill="none" marker-start="url(#ProcessOnMarker1105)" marker-end="url(#ProcessOnMarker1107)"/></g><g id="ProcessOnG1109"><path id="ProcessOnPath1110" d="M892.5904791566767 387.4914973331735L916.4285714285714 387.4914973331735L916.4285714285714 444.28571428571433L958.5714285714287 444.28571428571433" stroke="#323232" stroke-width="2.0" stroke-dasharray="none" fill="none" marker-start="url(#ProcessOnMarker1111)" marker-end="url(#ProcessOnMarker1113)"/></g><g id="ProcessOnG1115"><path id="ProcessOnPath1116" d="M892.5904791566768 529.6569598461838L916.4285714285716 529.6569598461838L916.4285714285716 567.1428571428572L958.5714285714287 567.1428571428572" stroke="#323232" stroke-width="2.0" stroke-dasharray="none" fill="none" marker-start="url(#ProcessOnMarker1117)" marker-end="url(#ProcessOnMarker1119)"/></g><g id="ProcessOnG1121"><path id="ProcessOnPath1122" d="M501.58620175374443 635.4476220138196L501.58620175374443 643.1428571428573L998.5714285714281 643.1428571428573L998.5714285714281 617.1428571428573" stroke="#323232" stroke-width="2.0" stroke-dasharray="none" fill="none" marker-start="url(#ProcessOnMarker1123)" marker-end="url(#ProcessOnMarker1125)"/></g></g></g></svg>