<svg xmlns="http://www.w3.org/2000/svg" xmlns:xlink="http://www.w3.org/1999/xlink" id="processonSvg1000" viewBox="52.077567532266556 11.868131868131908 1090.0652896105903 766.7032967032965" width="1090.0652896105903" height="766.7032967032965"><defs id="ProcessOnDefs1001"/><g id="ProcessOnG1002"><path id="ProcessOnPath1003" d="M52.077567532266556 11.868131868131908H1142.1428571428569V778.5714285714283H52.077567532266585V11.868131868131854Z" fill="none"/><g id="ProcessOnG1004"><g id="ProcessOnG1005" transform="matrix(1.0,0.0,0.0,1.0,72.07756753226656,31.868131868131908)" opacity="1.0"><path id="ProcessOnPath1006" d="M0.0 0.0L1050.0652896105903 0.0L1050.0652896105903 726.7032967032965L0.0 726.7032967032965Z" stroke="none" stroke-width="0.0" stroke-dasharray="none" opacity="1.0" fill="#ffffff"/></g><g id="ProcessOnG1007" transform="matrix(1.0,0.0,0.0,1.0,400.64285714285717,352.4285714285713)" opacity="1.0"><path id="ProcessOnPath1008" d="M0.0 0.0L100.0 0.0L100.0 350.0L0.0 350.0Z" stroke="none" stroke-width="0.0" stroke-dasharray="none" opacity="1.0" fill="#00994d"/><g id="ProcessOnG1009" transform="matrix(1.0,0.0,0.0,1.0,10.0,163.75)"><text id="ProcessOnText1010" fill="#ffffff" font-size="18" x="39.0" y="18.45" font-family="微软雅黑" font-weight="normal" font-style="normal" text-decoration="none" family="微软雅黑" text-anchor="middle" size="18">Session</text></g></g><g id="ProcessOnG1011" transform="matrix(1.0,0.0,0.0,1.0,545.6428571428575,352.4285714285713)" opacity="1.0"><path id="ProcessOnPath1012" d="M0.0 0.0L99.5 0.0L99.5 256.0L0.0 256.0Z" stroke="none" stroke-width="0.0" stroke-dasharray="none" opacity="1.0" fill="#00994d"/><g id="ProcessOnG1013" transform="matrix(1.0,0.0,0.0,1.0,10.0,105.5)"><text id="ProcessOnText1014" fill="#ffffff" font-size="18" x="38.75" y="18.45" font-family="微软雅黑" font-weight="normal" font-style="normal" text-decoration="none" family="微软雅黑" text-anchor="middle" size="18">Socket</text><text id="ProcessOnText1015" fill="#ffffff" font-size="18" x="38.75" y="40.95" font-family="微软雅黑" font-weight="normal" font-style="normal" text-decoration="none" family="微软雅黑" text-anchor="middle" size="18">(Conn)</text></g></g><g id="ProcessOnG1016" transform="matrix(1.0,0.0,0.0,1.0,688.6428571428571,352.4285714285713)" opacity="1.0"><path id="ProcessOnPath1017" d="M0.0 0.0L100.0 0.0L100.0 70.0L0.0 70.0Z" stroke="none" stroke-width="0.0" stroke-dasharray="none" opacity="1.0" fill="#00994d"/><g id="ProcessOnG1018" transform="matrix(1.0,0.0,0.0,1.0,10.0,23.75)"><text id="ProcessOnText1019" fill="#ffffff" font-size="18" x="39.0" y="18.45" font-family="微软雅黑" font-weight="normal" font-style="normal" text-decoration="none" family="微软雅黑" text-anchor="middle" size="18">Message</text></g></g><g id="ProcessOnG1020" transform="matrix(1.0,0.0,0.0,1.0,688.1428571428571,448.4285714285712)" opacity="1.0"><path id="ProcessOnPath1021" d="M0.0 0.0L100.0 0.0L100.0 160.0L0.0 160.0Z" stroke="none" stroke-width="0.0" stroke-dasharray="none" opacity="1.0" fill="#00994d"/><g id="ProcessOnG1022" transform="matrix(1.0,0.0,0.0,1.0,10.0,68.75)"><text id="ProcessOnText1023" fill="#ffffff" font-size="18" x="39.0" y="18.45" font-family="微软雅黑" font-weight="normal" font-style="normal" text-decoration="none" family="微软雅黑" text-anchor="middle" size="18">Protocol</text></g></g><g id="ProcessOnG1024" transform="matrix(1.0,0.0,0.0,1.0,833.6428571428572,448.4285714285712)" opacity="1.0"><path id="ProcessOnPath1025" d="M0.0 0.0L100.0 0.0L100.0 70.0L0.0 70.0Z" stroke="none" stroke-width="0.0" stroke-dasharray="none" opacity="1.0" fill="#00994d"/><g id="ProcessOnG1026" transform="matrix(1.0,0.0,0.0,1.0,10.0,23.75)"><text id="ProcessOnText1027" fill="#ffffff" font-size="18" x="39.0" y="18.45" font-family="微软雅黑" font-weight="normal" font-style="normal" text-decoration="none" family="微软雅黑" text-anchor="middle" size="18">Codec</text></g></g><g id="ProcessOnG1028" transform="matrix(1.0,0.0,0.0,1.0,400.6428571428574,154.92857142857173)" opacity="1.0"><path id="ProcessOnPath1029" d="M0.0 0.0L533.0 0.0L533.0 69.5L0.0 69.5Z" stroke="none" stroke-width="0.0" stroke-dasharray="none" opacity="1.0" fill="#999900"/><g id="ProcessOnG1030" transform="matrix(1.0,0.0,0.0,1.0,10.0,23.5)"><text id="ProcessOnText1031" fill="#ffffff" font-size="18" x="255.5" y="18.45" font-family="微软雅黑" font-weight="normal" font-style="normal" text-decoration="none" family="微软雅黑" text-anchor="middle" size="18">Plugin</text></g></g><g id="ProcessOnG1032" transform="matrix(1.0,0.0,0.0,1.0,688.1428571428571,253.9285714285714)" opacity="1.0"><path id="ProcessOnPath1033" d="M0.0 0.0L245.5 0.0L245.5 70.0L0.0 70.0Z" stroke="none" stroke-width="0.0" stroke-dasharray="none" opacity="1.0" fill="#007fff"/><g id="ProcessOnG1034" transform="matrix(1.0,0.0,0.0,1.0,10.0,23.75)"><text id="ProcessOnText1035" fill="#ffffff" font-size="18" x="111.75" y="18.45" font-family="微软雅黑" font-weight="normal" font-style="normal" text-decoration="none" family="微软雅黑" text-anchor="middle" size="18">Handler</text></g></g><g id="ProcessOnG1036" transform="matrix(1.0,0.0,0.0,1.0,253.6428571428571,154.92857142857184)" opacity="1.0"><path id="ProcessOnPath1037" d="M0.0 0.0L99.5 0.0L99.5 547.5L0.0 547.5Z" stroke="none" stroke-width="0.0" stroke-dasharray="none" opacity="1.0" fill="#737373"/><g id="ProcessOnG1038" transform="matrix(1.0,0.0,0.0,1.0,10.0,228.75)"><text id="ProcessOnText1039" fill="#ffffff" font-size="18" x="38.75" y="18.45" font-family="微软雅黑" font-weight="normal" font-style="normal" text-decoration="none" family="微软雅黑" text-anchor="middle" size="18">Peer</text><text id="ProcessOnText1040" fill="#ffffff" font-size="18" x="38.75" y="40.95" font-family="微软雅黑" font-weight="normal" font-style="normal" text-decoration="none" family="微软雅黑" text-anchor="middle" size="18"></text><text id="ProcessOnText1041" fill="#ffffff" font-size="18" x="38.75" y="63.45" font-family="微软雅黑" font-weight="normal" font-style="normal" text-decoration="none" family="微软雅黑" text-anchor="middle" size="18">(server</text><text id="ProcessOnText1042" fill="#ffffff" font-size="18" x="38.75" y="85.95" font-family="微软雅黑" font-weight="normal" font-style="normal" text-decoration="none" family="微软雅黑" text-anchor="middle" size="18">/client)</text></g></g><g id="ProcessOnG1043" transform="matrix(1.0,0.0,0.0,1.0,833.6428571428572,538.4285714285714)" opacity="1.0"><path id="ProcessOnPath1044" d="M0.0 0.0L100.0 0.0L100.0 70.0L0.0 70.0Z" stroke="none" stroke-width="0.0" stroke-dasharray="none" opacity="1.0" fill="#00994d"/><g id="ProcessOnG1045" transform="matrix(1.0,0.0,0.0,1.0,10.0,23.75)"><text id="ProcessOnText1046" fill="#ffffff" font-size="18" x="39.0" y="18.45" font-family="微软雅黑" font-weight="normal" font-style="normal" text-decoration="none" family="微软雅黑" text-anchor="middle" size="18">XferPipe</text></g></g><g id="ProcessOnG1047" transform="matrix(1.0,0.0,0.0,1.0,400.64285714285717,253.9285714285714)" opacity="1.0"><path id="ProcessOnPath1048" d="M0.0 0.0L100.0 0.0L100.0 70.0L0.0 70.0Z" stroke="none" stroke-width="0.0" stroke-dasharray="none" opacity="1.0" fill="#007fff"/><g id="ProcessOnG1049" transform="matrix(1.0,0.0,0.0,1.0,10.0,23.75)"><text id="ProcessOnText1050" fill="#ffffff" font-size="18" x="39.0" y="18.45" font-family="微软雅黑" font-weight="normal" font-style="normal" text-decoration="none" family="微软雅黑" text-anchor="middle" size="18">Router</text></g></g><g id="ProcessOnG1051" transform="matrix(1.0,0.0,0.0,1.0,545.6428571428575,632.428571428572)" opacity="1.0"><path id="ProcessOnPath1052" d="M0.0 0.0L388.0 0.0L388.0 70.0L0.0 70.0Z" stroke="none" stroke-width="0.0" stroke-dasharray="none" opacity="1.0" fill="#00994d"/><g id="ProcessOnG1053" transform="matrix(1.0,0.0,0.0,1.0,10.0,23.75)"><text id="ProcessOnText1054" fill="#ffffff" font-size="18" x="183.0" y="18.45" font-family="微软雅黑" font-weight="normal" font-style="normal" text-decoration="none" family="微软雅黑" text-anchor="middle" size="18">Context</text></g></g><g id="ProcessOnG1055" transform="matrix(1.0,0.0,0.0,1.0,458.51381266188446,56.923076923075676)" opacity="1.0"><path id="ProcessOnPath1056" d="M0.0 0.0L277.19279935135467 0.0L277.19279935135467 53.076923076924274L0.0 53.076923076924274Z" stroke="none" stroke-width="0.0" stroke-dasharray="none" opacity="1.0" fill="none"/><g id="ProcessOnG1057" transform="matrix(1.0,0.0,0.0,1.0,0.0,11.538461538462137)"><text id="ProcessOnText1058" fill="#000000" font-size="24" x="137.59639967567733" y="24.6" font-family="微软雅黑" font-weight="normal" font-style="normal" text-decoration="none" family="微软雅黑" text-anchor="middle" size="24">Teleport Framework</text></g></g></g></g></svg>