<svg xmlns="http://www.w3.org/2000/svg" xmlns:xlink="http://www.w3.org/1999/xlink" id="processonSvg1000" viewBox="350.0 202.0 1264.2993197278922 694.666666666667" width="1264.2993197278922" height="694.666666666667"><defs id="ProcessOnDefs1001"/><g id="ProcessOnG1002"><path id="ProcessOnPath1003" d="M350.0 202.0H1614.2993197278922V896.666666666667H350.0V202.0Z" fill="none"/><g id="ProcessOnG1004"><g id="ProcessOnG1005" transform="matrix(1.0,0.0,0.0,1.0,370.0,222.0)" opacity="1.0"><path id="ProcessOnPath1006" d="M0.0 0.0L1224.2993197278922 0.0L1224.2993197278922 654.666666666667L0.0 654.666666666667Z" stroke="#ffffff" stroke-width="2.0" stroke-dasharray="none" opacity="1.0" fill="#ffffff"/></g><g id="ProcessOnG1007" transform="matrix(1.0,0.0,0.0,1.0,971.4353741496603,320.66666666666663)" opacity="1.0"><path id="ProcessOnPath1008" d="M0.0 0.0L132.0 0.0L132.0 30.0L0.0 30.0Z" stroke="#323232" stroke-width="2.0" stroke-dasharray="none" opacity="1.0" fill="#ffffff"/><g id="ProcessOnG1009" transform="matrix(1.0,0.0,0.0,1.0,10.0,6.875)"><text id="ProcessOnText1010" fill="#000000" font-size="13" x="55.0" y="13.325" font-family="微软雅黑" font-weight="normal" font-style="normal" text-decoration="none" family="微软雅黑" text-anchor="middle" size="13">Method</text></g></g><g id="ProcessOnG1011" transform="matrix(1.0,0.0,0.0,1.0,1163.4353741496611,320.66666666666663)" opacity="1.0"><path id="ProcessOnPath1012" d="M0.0 0.0L130.0 0.0L130.0 30.0L0.0 30.0Z" stroke="#323232" stroke-width="2.0" stroke-dasharray="none" opacity="1.0" fill="#ffffff"/><g id="ProcessOnG1013" transform="matrix(1.0,0.0,0.0,1.0,10.0,6.875)"><text id="ProcessOnText1014" fill="#000000" font-size="13" x="54.0" y="13.325" font-family="微软雅黑" font-weight="normal" font-style="normal" text-decoration="none" family="微软雅黑" text-anchor="middle" size="13">URL</text></g></g><g id="ProcessOnG1015" transform="matrix(1.0,0.0,0.0,1.0,1353.4353741496614,320.66666666666663)" opacity="1.0"><path id="ProcessOnPath1016" d="M0.0 0.0L116.0 0.0L116.0 30.0L0.0 30.0Z" stroke="#323232" stroke-width="2.0" stroke-dasharray="none" opacity="1.0" fill="#ffffff"/><g id="ProcessOnG1017" transform="matrix(1.0,0.0,0.0,1.0,10.0,6.875)"><text id="ProcessOnText1018" fill="#000000" font-size="13" x="47.0" y="13.325" font-family="微软雅黑" font-weight="normal" font-style="normal" text-decoration="none" family="微软雅黑" text-anchor="middle" size="13">HTTP-Version</text></g></g><g id="ProcessOnG1019" transform="matrix(1.0,0.0,0.0,1.0,1103.435374149661,320.66666666666663)" opacity="1.0"><path id="ProcessOnPath1020" d="M0.0 0.0L60.0 0.0L60.0 30.0L0.0 30.0Z" stroke="#323232" stroke-width="2.0" stroke-dasharray="none" opacity="1.0" fill="#ffffff"/><g id="ProcessOnG1021" transform="matrix(1.0,0.0,0.0,1.0,10.0,6.875)"><text id="ProcessOnText1022" fill="#000000" font-size="13" x="19.0" y="13.325" font-family="微软雅黑" font-weight="normal" font-style="normal" text-decoration="none" family="微软雅黑" text-anchor="middle" size="13">Space</text></g></g><g id="ProcessOnG1023" transform="matrix(1.0,0.0,0.0,1.0,1293.4353741496614,320.66666666666663)" opacity="1.0"><path id="ProcessOnPath1024" d="M0.0 0.0L60.0 0.0L60.0 30.0L0.0 30.0Z" stroke="#323232" stroke-width="2.0" stroke-dasharray="none" opacity="1.0" fill="#ffffff"/><g id="ProcessOnG1025" transform="matrix(1.0,0.0,0.0,1.0,10.0,6.875)"><text id="ProcessOnText1026" fill="#000000" font-size="13" x="19.0" y="13.325" font-family="微软雅黑" font-weight="normal" font-style="normal" text-decoration="none" family="微软雅黑" text-anchor="middle" size="13">Space</text></g></g><g id="ProcessOnG1027" transform="matrix(1.0,0.0,0.0,1.0,1469.4353741496614,320.66666666666663)" opacity="1.0"><path id="ProcessOnPath1028" d="M0.0 0.0L51.42857142857156 0.0L51.42857142857156 30.0L0.0 30.0Z" stroke="#323232" stroke-width="2.0" stroke-dasharray="none" opacity="1.0" fill="#ffffff"/><g id="ProcessOnG1029" transform="matrix(1.0,0.0,0.0,1.0,10.0,6.875)"><text id="ProcessOnText1030" fill="#000000" font-size="13" x="14.71428571428578" y="13.325" font-family="微软雅黑" font-weight="normal" font-style="normal" text-decoration="none" family="微软雅黑" text-anchor="middle" size="13">\r\n</text></g></g><g id="ProcessOnG1031" transform="matrix(1.0,0.0,0.0,1.0,971.4353741496603,350.6666666666666)" opacity="1.0"><path id="ProcessOnPath1032" d="M0.0 0.0L132.0 0.0L132.0 30.0L0.0 30.0Z" stroke="#323232" stroke-width="2.0" stroke-dasharray="none" opacity="1.0" fill="#ffffff"/><g id="ProcessOnG1033" transform="matrix(1.0,0.0,0.0,1.0,10.0,6.875)"><text id="ProcessOnText1034" fill="#000000" font-size="13" x="55.0" y="13.325" font-family="微软雅黑" font-weight="normal" font-style="normal" text-decoration="none" family="微软雅黑" text-anchor="middle" size="13">Header-Name</text></g></g><g id="ProcessOnG1035" transform="matrix(1.0,0.0,0.0,1.0,1103.435374149661,350.6666666666666)" opacity="1.0"><path id="ProcessOnPath1036" d="M0.0 0.0L23.5 0.0L23.5 30.0L0.0 30.0Z" stroke="#323232" stroke-width="2.0" stroke-dasharray="none" opacity="1.0" fill="#ffffff"/><g id="ProcessOnG1037" transform="matrix(1.0,0.0,0.0,1.0,10.0,6.875)"><text id="ProcessOnText1038" fill="#000000" font-size="13" x="0.75" y="13.325" font-family="微软雅黑" font-weight="normal" font-style="normal" text-decoration="none" family="微软雅黑" text-anchor="middle" size="13">:</text></g></g><g id="ProcessOnG1039" transform="matrix(1.0,0.0,0.0,1.0,1126.935374149661,350.6666666666666)" opacity="1.0"><path id="ProcessOnPath1040" d="M0.0 0.0L342.5 0.0L342.5 30.0L0.0 30.0Z" stroke="#323232" stroke-width="2.0" stroke-dasharray="none" opacity="1.0" fill="#ffffff"/><g id="ProcessOnG1041" transform="matrix(1.0,0.0,0.0,1.0,10.0,6.875)"><text id="ProcessOnText1042" fill="#000000" font-size="13" x="160.25" y="13.325" font-family="微软雅黑" font-weight="normal" font-style="normal" text-decoration="none" family="微软雅黑" text-anchor="middle" size="13">Value</text></g></g><g id="ProcessOnG1043" transform="matrix(1.0,0.0,0.0,1.0,1469.4353741496614,350.6666666666666)" opacity="1.0"><path id="ProcessOnPath1044" d="M0.0 0.0L51.42857142857156 0.0L51.42857142857156 30.0L0.0 30.0Z" stroke="#323232" stroke-width="2.0" stroke-dasharray="none" opacity="1.0" fill="#ffffff"/><g id="ProcessOnG1045" transform="matrix(1.0,0.0,0.0,1.0,10.0,6.875)"><text id="ProcessOnText1046" fill="#000000" font-size="13" x="14.71428571428578" y="13.325" font-family="微软雅黑" font-weight="normal" font-style="normal" text-decoration="none" family="微软雅黑" text-anchor="middle" size="13">\r\n</text></g></g><g id="ProcessOnG1047" transform="matrix(1.0,0.0,0.0,1.0,971.4353741496603,410.6666666666666)" opacity="1.0"><path id="ProcessOnPath1048" d="M0.0 0.0L132.0 0.0L132.0 30.0L0.0 30.0Z" stroke="#323232" stroke-width="2.0" stroke-dasharray="none" opacity="1.0" fill="#ffffff"/><g id="ProcessOnG1049" transform="matrix(1.0,0.0,0.0,1.0,10.0,6.875)"><text id="ProcessOnText1050" fill="#000000" font-size="13" x="55.0" y="13.325" font-family="微软雅黑" font-weight="normal" font-style="normal" text-decoration="none" family="微软雅黑" text-anchor="middle" size="13">Header-Name</text></g></g><g id="ProcessOnG1051" transform="matrix(1.0,0.0,0.0,1.0,1103.435374149661,410.6666666666666)" opacity="1.0"><path id="ProcessOnPath1052" d="M0.0 0.0L23.5 0.0L23.5 30.0L0.0 30.0Z" stroke="#323232" stroke-width="2.0" stroke-dasharray="none" opacity="1.0" fill="#ffffff"/><g id="ProcessOnG1053" transform="matrix(1.0,0.0,0.0,1.0,10.0,6.875)"><text id="ProcessOnText1054" fill="#000000" font-size="13" x="0.75" y="13.325" font-family="微软雅黑" font-weight="normal" font-style="normal" text-decoration="none" family="微软雅黑" text-anchor="middle" size="13">:</text></g></g><g id="ProcessOnG1055" transform="matrix(1.0,0.0,0.0,1.0,1126.935374149661,410.6666666666666)" opacity="1.0"><path id="ProcessOnPath1056" d="M0.0 0.0L342.5 0.0L342.5 30.0L0.0 30.0Z" stroke="#323232" stroke-width="2.0" stroke-dasharray="none" opacity="1.0" fill="#ffffff"/><g id="ProcessOnG1057" transform="matrix(1.0,0.0,0.0,1.0,10.0,6.875)"><text id="ProcessOnText1058" fill="#000000" font-size="13" x="160.25" y="13.325" font-family="微软雅黑" font-weight="normal" font-style="normal" text-decoration="none" family="微软雅黑" text-anchor="middle" size="13">Value</text></g></g><g id="ProcessOnG1059" transform="matrix(1.0,0.0,0.0,1.0,1469.4353741496614,410.6666666666666)" opacity="1.0"><path id="ProcessOnPath1060" d="M0.0 0.0L51.42857142857156 0.0L51.42857142857156 29.999999999999943L0.0 29.999999999999943Z" stroke="#323232" stroke-width="2.0" stroke-dasharray="none" opacity="1.0" fill="#ffffff"/><g id="ProcessOnG1061" transform="matrix(1.0,0.0,0.0,1.0,10.0,6.874999999999972)"><text id="ProcessOnText1062" fill="#000000" font-size="13" x="14.71428571428578" y="13.325" font-family="微软雅黑" font-weight="normal" font-style="normal" text-decoration="none" family="微软雅黑" text-anchor="middle" size="13">\r\n</text></g></g><g id="ProcessOnG1063" transform="matrix(1.0,0.0,0.0,1.0,971.4353741496603,380.6666666666666)" opacity="1.0"><path id="ProcessOnPath1064" d="M0.0 0.0L549.428571428572 0.0L549.428571428572 30.0L0.0 30.0Z" stroke="#323232" stroke-width="2.0" stroke-dasharray="none" opacity="1.0" fill="#ffffff"/><g id="ProcessOnG1065" transform="matrix(1.0,0.0,0.0,1.0,10.0,6.875)"><text id="ProcessOnText1066" fill="#000000" font-size="13" x="263.714285714286" y="13.325" font-family="微软雅黑" font-weight="normal" font-style="normal" text-decoration="none" family="微软雅黑" text-anchor="middle" size="13">...</text></g></g><g id="ProcessOnG1067" transform="matrix(1.0,0.0,0.0,1.0,971.4353741496603,440.6666666666665)" opacity="1.0"><path id="ProcessOnPath1068" d="M0.0 0.0L51.42857142857156 0.0L51.42857142857156 29.999999999999943L0.0 29.999999999999943Z" stroke="#323232" stroke-width="2.0" stroke-dasharray="none" opacity="1.0" fill="#ffffff"/><g id="ProcessOnG1069" transform="matrix(1.0,0.0,0.0,1.0,10.0,6.874999999999972)"><text id="ProcessOnText1070" fill="#000000" font-size="13" x="14.71428571428578" y="13.325" font-family="微软雅黑" font-weight="normal" font-style="normal" text-decoration="none" family="微软雅黑" text-anchor="middle" size="13">\r\n</text></g></g><g id="ProcessOnG1071" transform="matrix(1.0,0.0,0.0,1.0,971.4353741496603,470.66666666666646)" opacity="1.0"><path id="ProcessOnPath1072" d="M0.0 0.0L549.428571428572 0.0L549.428571428572 60.0L0.0 60.0Z" stroke="#323232" stroke-width="2.0" stroke-dasharray="none" opacity="1.0" fill="#ffffff"/><g id="ProcessOnG1073" transform="matrix(1.0,0.0,0.0,1.0,10.0,21.875)"><text id="ProcessOnText1074" fill="#000000" font-size="13" x="263.714285714286" y="13.325" font-family="微软雅黑" font-weight="normal" font-style="normal" text-decoration="none" family="微软雅黑" text-anchor="middle" size="13">Body</text></g></g><g id="ProcessOnG1075" transform="matrix(1.0,0.0,0.0,1.0,966.3333333333328,280.66666666666663)" opacity="1.0"><path id="ProcessOnPath1076" d="M0.0 0.0L200.0 0.0L200.0 40.0L0.0 40.0Z" stroke="none" stroke-width="0.0" stroke-dasharray="none" opacity="1.0" fill="none"/><g id="ProcessOnG1077" transform="matrix(1.0,0.0,0.0,1.0,0.0,11.25)"><text id="ProcessOnText1078" fill="#000000" font-size="14" x="0.0" y="14.350000000000001" font-family="微软雅黑" font-weight="normal" font-style="normal" text-decoration="none" family="微软雅黑" text-anchor="start" size="14">HTTP Request Message</text></g></g><g id="ProcessOnG1079" transform="matrix(1.0,0.0,0.0,1.0,977.1496598639462,593.6666666666669)" opacity="1.0"><path id="ProcessOnPath1080" d="M0.0 0.0L132.0 0.0L132.0 30.0L0.0 30.0Z" stroke="#323232" stroke-width="2.0" stroke-dasharray="none" opacity="1.0" fill="#ffffff"/><g id="ProcessOnG1081" transform="matrix(1.0,0.0,0.0,1.0,10.0,6.875)"><text id="ProcessOnText1082" fill="#000000" font-size="13" x="55.0" y="13.325" font-family="微软雅黑" font-weight="normal" font-style="normal" text-decoration="none" family="微软雅黑" text-anchor="middle" size="13">HTTP-Version</text></g></g><g id="ProcessOnG1083" transform="matrix(1.0,0.0,0.0,1.0,1169.149659863947,593.6666666666669)" opacity="1.0"><path id="ProcessOnPath1084" d="M0.0 0.0L130.0 0.0L130.0 30.0L0.0 30.0Z" stroke="#323232" stroke-width="2.0" stroke-dasharray="none" opacity="1.0" fill="#ffffff"/><g id="ProcessOnG1085" transform="matrix(1.0,0.0,0.0,1.0,10.0,6.875)"><text id="ProcessOnText1086" fill="#000000" font-size="13" x="54.0" y="13.325" font-family="微软雅黑" font-weight="normal" font-style="normal" text-decoration="none" family="微软雅黑" text-anchor="middle" size="13">Status-Code</text></g></g><g id="ProcessOnG1087" transform="matrix(1.0,0.0,0.0,1.0,1359.1496598639471,593.6666666666669)" opacity="1.0"><path id="ProcessOnPath1088" d="M0.0 0.0L116.0 0.0L116.0 30.0L0.0 30.0Z" stroke="#323232" stroke-width="2.0" stroke-dasharray="none" opacity="1.0" fill="#ffffff"/><g id="ProcessOnG1089" transform="matrix(1.0,0.0,0.0,1.0,10.0,6.875)"><text id="ProcessOnText1090" fill="#000000" font-size="13" x="47.0" y="13.325" font-family="微软雅黑" font-weight="normal" font-style="normal" text-decoration="none" family="微软雅黑" text-anchor="middle" size="13">Reason-Phrase</text></g></g><g id="ProcessOnG1091" transform="matrix(1.0,0.0,0.0,1.0,1109.1496598639467,593.6666666666669)" opacity="1.0"><path id="ProcessOnPath1092" d="M0.0 0.0L60.0 0.0L60.0 30.0L0.0 30.0Z" stroke="#323232" stroke-width="2.0" stroke-dasharray="none" opacity="1.0" fill="#ffffff"/><g id="ProcessOnG1093" transform="matrix(1.0,0.0,0.0,1.0,10.0,6.875)"><text id="ProcessOnText1094" fill="#000000" font-size="13" x="19.0" y="13.325" font-family="微软雅黑" font-weight="normal" font-style="normal" text-decoration="none" family="微软雅黑" text-anchor="middle" size="13">Space</text></g></g><g id="ProcessOnG1095" transform="matrix(1.0,0.0,0.0,1.0,1299.1496598639471,593.6666666666669)" opacity="1.0"><path id="ProcessOnPath1096" d="M0.0 0.0L60.0 0.0L60.0 30.0L0.0 30.0Z" stroke="#323232" stroke-width="2.0" stroke-dasharray="none" opacity="1.0" fill="#ffffff"/><g id="ProcessOnG1097" transform="matrix(1.0,0.0,0.0,1.0,10.0,6.875)"><text id="ProcessOnText1098" fill="#000000" font-size="13" x="19.0" y="13.325" font-family="微软雅黑" font-weight="normal" font-style="normal" text-decoration="none" family="微软雅黑" text-anchor="middle" size="13">Space</text></g></g><g id="ProcessOnG1099" transform="matrix(1.0,0.0,0.0,1.0,1475.1496598639474,593.7393637878328)" opacity="1.0"><path id="ProcessOnPath1100" d="M0.0 0.0L51.42857142857156 0.0L51.42857142857156 30.0L0.0 30.0Z" stroke="#323232" stroke-width="2.0" stroke-dasharray="none" opacity="1.0" fill="#ffffff"/><g id="ProcessOnG1101" transform="matrix(1.0,0.0,0.0,1.0,10.0,6.875)"><text id="ProcessOnText1102" fill="#000000" font-size="13" x="14.71428571428578" y="13.325" font-family="微软雅黑" font-weight="normal" font-style="normal" text-decoration="none" family="微软雅黑" text-anchor="middle" size="13">\r\n</text></g></g><g id="ProcessOnG1103" transform="matrix(1.0,0.0,0.0,1.0,977.1496598639462,623.6666666666669)" opacity="1.0"><path id="ProcessOnPath1104" d="M0.0 0.0L132.0 0.0L132.0 30.0L0.0 30.0Z" stroke="#323232" stroke-width="2.0" stroke-dasharray="none" opacity="1.0" fill="#ffffff"/><g id="ProcessOnG1105" transform="matrix(1.0,0.0,0.0,1.0,10.0,6.875)"><text id="ProcessOnText1106" fill="#000000" font-size="13" x="55.0" y="13.325" font-family="微软雅黑" font-weight="normal" font-style="normal" text-decoration="none" family="微软雅黑" text-anchor="middle" size="13">Header-Name</text></g></g><g id="ProcessOnG1107" transform="matrix(1.0,0.0,0.0,1.0,1109.1496598639467,623.6666666666669)" opacity="1.0"><path id="ProcessOnPath1108" d="M0.0 0.0L23.5 0.0L23.5 30.0L0.0 30.0Z" stroke="#323232" stroke-width="2.0" stroke-dasharray="none" opacity="1.0" fill="#ffffff"/><g id="ProcessOnG1109" transform="matrix(1.0,0.0,0.0,1.0,10.0,6.875)"><text id="ProcessOnText1110" fill="#000000" font-size="13" x="0.75" y="13.325" font-family="微软雅黑" font-weight="normal" font-style="normal" text-decoration="none" family="微软雅黑" text-anchor="middle" size="13">:</text></g></g><g id="ProcessOnG1111" transform="matrix(1.0,0.0,0.0,1.0,1132.6496598639467,623.6666666666669)" opacity="1.0"><path id="ProcessOnPath1112" d="M0.0 0.0L342.5 0.0L342.5 30.0L0.0 30.0Z" stroke="#323232" stroke-width="2.0" stroke-dasharray="none" opacity="1.0" fill="#ffffff"/><g id="ProcessOnG1113" transform="matrix(1.0,0.0,0.0,1.0,10.0,6.875)"><text id="ProcessOnText1114" fill="#000000" font-size="13" x="160.25" y="13.325" font-family="微软雅黑" font-weight="normal" font-style="normal" text-decoration="none" family="微软雅黑" text-anchor="middle" size="13">Value</text></g></g><g id="ProcessOnG1115" transform="matrix(1.0,0.0,0.0,1.0,1475.1496598639471,623.6666666666669)" opacity="1.0"><path id="ProcessOnPath1116" d="M0.0 0.0L51.42857142857156 0.0L51.42857142857156 30.0L0.0 30.0Z" stroke="#323232" stroke-width="2.0" stroke-dasharray="none" opacity="1.0" fill="#ffffff"/><g id="ProcessOnG1117" transform="matrix(1.0,0.0,0.0,1.0,10.0,6.875)"><text id="ProcessOnText1118" fill="#000000" font-size="13" x="14.71428571428578" y="13.325" font-family="微软雅黑" font-weight="normal" font-style="normal" text-decoration="none" family="微软雅黑" text-anchor="middle" size="13">\r\n</text></g></g><g id="ProcessOnG1119" transform="matrix(1.0,0.0,0.0,1.0,977.1496598639462,683.6666666666669)" opacity="1.0"><path id="ProcessOnPath1120" d="M0.0 0.0L132.0 0.0L132.0 30.0L0.0 30.0Z" stroke="#323232" stroke-width="2.0" stroke-dasharray="none" opacity="1.0" fill="#ffffff"/><g id="ProcessOnG1121" transform="matrix(1.0,0.0,0.0,1.0,10.0,6.875)"><text id="ProcessOnText1122" fill="#000000" font-size="13" x="55.0" y="13.325" font-family="微软雅黑" font-weight="normal" font-style="normal" text-decoration="none" family="微软雅黑" text-anchor="middle" size="13">Header-Name</text></g></g><g id="ProcessOnG1123" transform="matrix(1.0,0.0,0.0,1.0,1109.1496598639467,683.6666666666669)" opacity="1.0"><path id="ProcessOnPath1124" d="M0.0 0.0L23.5 0.0L23.5 30.0L0.0 30.0Z" stroke="#323232" stroke-width="2.0" stroke-dasharray="none" opacity="1.0" fill="#ffffff"/><g id="ProcessOnG1125" transform="matrix(1.0,0.0,0.0,1.0,10.0,6.875)"><text id="ProcessOnText1126" fill="#000000" font-size="13" x="0.75" y="13.325" font-family="微软雅黑" font-weight="normal" font-style="normal" text-decoration="none" family="微软雅黑" text-anchor="middle" size="13">:</text></g></g><g id="ProcessOnG1127" transform="matrix(1.0,0.0,0.0,1.0,1132.6496598639467,683.6666666666669)" opacity="1.0"><path id="ProcessOnPath1128" d="M0.0 0.0L342.5 0.0L342.5 30.0L0.0 30.0Z" stroke="#323232" stroke-width="2.0" stroke-dasharray="none" opacity="1.0" fill="#ffffff"/><g id="ProcessOnG1129" transform="matrix(1.0,0.0,0.0,1.0,10.0,6.875)"><text id="ProcessOnText1130" fill="#000000" font-size="13" x="160.25" y="13.325" font-family="微软雅黑" font-weight="normal" font-style="normal" text-decoration="none" family="微软雅黑" text-anchor="middle" size="13">Value</text></g></g><g id="ProcessOnG1131" transform="matrix(1.0,0.0,0.0,1.0,1475.1496598639471,683.6666666666669)" opacity="1.0"><path id="ProcessOnPath1132" d="M0.0 0.0L51.42857142857156 0.0L51.42857142857156 30.0L0.0 30.0Z" stroke="#323232" stroke-width="2.0" stroke-dasharray="none" opacity="1.0" fill="#ffffff"/><g id="ProcessOnG1133" transform="matrix(1.0,0.0,0.0,1.0,10.0,6.875)"><text id="ProcessOnText1134" fill="#000000" font-size="13" x="14.71428571428578" y="13.325" font-family="微软雅黑" font-weight="normal" font-style="normal" text-decoration="none" family="微软雅黑" text-anchor="middle" size="13">\r\n</text></g></g><g id="ProcessOnG1135" transform="matrix(1.0,0.0,0.0,1.0,977.1496598639462,653.6666666666669)" opacity="1.0"><path id="ProcessOnPath1136" d="M0.0 0.0L549.428571428572 0.0L549.428571428572 30.0L0.0 30.0Z" stroke="#323232" stroke-width="2.0" stroke-dasharray="none" opacity="1.0" fill="#ffffff"/><g id="ProcessOnG1137" transform="matrix(1.0,0.0,0.0,1.0,10.0,6.875)"><text id="ProcessOnText1138" fill="#000000" font-size="13" x="263.714285714286" y="13.325" font-family="微软雅黑" font-weight="normal" font-style="normal" text-decoration="none" family="微软雅黑" text-anchor="middle" size="13">...</text></g></g><g id="ProcessOnG1139" transform="matrix(1.0,0.0,0.0,1.0,977.1496598639462,713.6666666666669)" opacity="1.0"><path id="ProcessOnPath1140" d="M0.0 0.0L47.00000000000068 0.0L47.00000000000068 30.0L0.0 30.0Z" stroke="#323232" stroke-width="2.0" stroke-dasharray="none" opacity="1.0" fill="#ffffff"/><g id="ProcessOnG1141" transform="matrix(1.0,0.0,0.0,1.0,10.0,6.875)"><text id="ProcessOnText1142" fill="#000000" font-size="13" x="12.500000000000341" y="13.325" font-family="微软雅黑" font-weight="normal" font-style="normal" text-decoration="none" family="微软雅黑" text-anchor="middle" size="13">\r\n</text></g></g><g id="ProcessOnG1143" transform="matrix(1.0,0.0,0.0,1.0,977.1496598639462,743.6666666666669)" opacity="1.0"><path id="ProcessOnPath1144" d="M0.0 0.0L549.428571428572 0.0L549.428571428572 60.0L0.0 60.0Z" stroke="#323232" stroke-width="2.0" stroke-dasharray="none" opacity="1.0" fill="#ffffff"/><g id="ProcessOnG1145" transform="matrix(1.0,0.0,0.0,1.0,10.0,21.875)"><text id="ProcessOnText1146" fill="#000000" font-size="13" x="263.714285714286" y="13.325" font-family="微软雅黑" font-weight="normal" font-style="normal" text-decoration="none" family="微软雅黑" text-anchor="middle" size="13">Body</text></g></g><g id="ProcessOnG1147" transform="matrix(1.0,0.0,0.0,1.0,973.3333333333336,553.6666666666669)" opacity="1.0"><path id="ProcessOnPath1148" d="M0.0 0.0L200.0 0.0L200.0 40.0L0.0 40.0Z" stroke="none" stroke-width="0.0" stroke-dasharray="none" opacity="1.0" fill="none"/><g id="ProcessOnG1149" transform="matrix(1.0,0.0,0.0,1.0,0.0,11.25)"><text id="ProcessOnText1150" fill="#000000" font-size="14" x="0.0" y="14.350000000000001" font-family="微软雅黑" font-weight="normal" font-style="normal" text-decoration="none" family="微软雅黑" text-anchor="start" size="14">HTTP Response Message</text></g></g><g id="ProcessOnG1151" transform="matrix(1.0,0.0,0.0,1.0,431.4860031314063,431.47355366789805)" opacity="1.0"><path id="ProcessOnPath1152" d="M0.0 0.0L138.07418205377792 0.0L138.07418205377792 30.0L0.0 30.0Z" stroke="#323232" stroke-width="2.0" stroke-dasharray="none" opacity="1.0" fill="#ffffff"/><g id="ProcessOnG1153" transform="matrix(1.0,0.0,0.0,1.0,10.0,6.875)"><text id="ProcessOnText1154" fill="#000000" font-size="13" x="58.03709102688896" y="13.325" font-family="微软雅黑" font-weight="normal" font-style="normal" text-decoration="none" family="微软雅黑" text-anchor="middle" size="13">Message-Size</text></g></g><g id="ProcessOnG1155" transform="matrix(1.0,0.0,0.0,1.0,570.2350943022703,431.47355366789805)" opacity="1.0"><path id="ProcessOnPath1156" d="M0.0 0.0L276.8464213727907 0.0L276.8464213727907 30.0L0.0 30.0Z" stroke="#323232" stroke-width="2.0" stroke-dasharray="none" opacity="1.0" fill="#ffffff"/><g id="ProcessOnG1157" transform="matrix(1.0,0.0,0.0,1.0,10.0,6.875)"><text id="ProcessOnText1158" fill="#000000" font-size="13" x="127.42321068639535" y="13.325" font-family="微软雅黑" font-weight="normal" font-style="normal" text-decoration="none" family="微软雅黑" text-anchor="middle" size="13">Transfer-Filter-Pipeline</text></g></g><g id="ProcessOnG1159" transform="matrix(1.0,0.0,0.0,1.0,431.4845551813987,491.1957758901202)" opacity="1.0"><path id="ProcessOnPath1160" d="M0.0 0.0L415.5752602955216 0.0L415.5752602955216 59.29888736473134L0.0 59.29888736473134Z" stroke="#323232" stroke-width="2.0" stroke-dasharray="none" opacity="1.0" fill="#ffffff"/><g id="ProcessOnG1161" transform="matrix(1.0,0.0,0.0,1.0,10.0,21.52444368236567)"><text id="ProcessOnText1162" fill="#000000" font-size="13" x="196.7876301477608" y="13.325" font-family="微软雅黑" font-weight="normal" font-style="normal" text-decoration="none" family="微软雅黑" text-anchor="middle" size="13">Metadata(Key-Value Urlencoded)</text></g></g><g id="ProcessOnG1163" transform="matrix(1.0,0.0,0.0,1.0,431.3702623906659,550.3789225141107)" opacity="1.0"><path id="ProcessOnPath1164" d="M0.0 0.0L415.8501421732834 0.0L415.8501421732834 28.888888888889596L0.0 28.888888888889596Z" stroke="#323232" stroke-width="2.0" stroke-dasharray="none" opacity="1.0" fill="#ffffff"/><g id="ProcessOnG1165" transform="matrix(1.0,0.0,0.0,1.0,10.0,6.319444444444798)"><text id="ProcessOnText1166" fill="#000000" font-size="13" x="196.9250710866417" y="13.325" font-family="微软雅黑" font-weight="normal" font-style="normal" text-decoration="none" family="微软雅黑" text-anchor="middle" size="13">Body-Codec</text></g></g><g id="ProcessOnG1167" transform="matrix(1.0,0.0,0.0,1.0,431.3702623906659,579.2678114030003)" opacity="1.0"><path id="ProcessOnPath1168" d="M0.0 0.0L415.5723643955065 0.0L415.5723643955065 91.1111111111104L0.0 91.1111111111104Z" stroke="#323232" stroke-width="2.0" stroke-dasharray="none" opacity="1.0" fill="#ffffff"/><g id="ProcessOnG1169" transform="matrix(1.0,0.0,0.0,1.0,10.0,37.4305555555552)"><text id="ProcessOnText1170" fill="#000000" font-size="13" x="196.78618219775325" y="13.325" font-family="微软雅黑" font-weight="normal" font-style="normal" text-decoration="none" family="微软雅黑" text-anchor="middle" size="13">Body</text></g></g><g id="ProcessOnG1171" transform="matrix(1.0,0.0,0.0,1.0,539.1564445884192,367.96768777685884)" opacity="1.0"><path id="ProcessOnPath1172" d="M0.0 0.0L200.0 0.0L200.0 40.0L0.0 40.0Z" stroke="none" stroke-width="0.0" stroke-dasharray="none" opacity="1.0" fill="none"/><g id="ProcessOnG1173" transform="matrix(1.0,0.0,0.0,1.0,0.0,10.625)"><text id="ProcessOnText1174" fill="#000000" font-size="15" x="99.0" y="15.375" font-family="微软雅黑" font-weight="bold" font-style="normal" text-decoration="none" family="微软雅黑" text-anchor="middle" size="15">Teleport Data Message</text></g></g><g id="ProcessOnG1175" transform="matrix(1.0,0.0,0.0,1.0,850.0,295.0)" opacity="1.0"><path id="ProcessOnPath1176" d="M100.0 0.0Q91.0 0.0 91.0 9.0L91.0 245.33333333333343Q91.0 254.33333333333343 78.0 254.33333333333343Q91.0 254.33333333333343 91.0 263.3333333333334L91.0 499.66666666666686Q91.0 508.66666666666686 100.0 508.66666666666686" stroke="#323232" stroke-width="2.0" stroke-dasharray="none" opacity="1.0" fill="none"/><path id="ProcessOnPath1177" d="M0.0 0.0L100.0 0.0L100.0 508.66666666666686L0.0 508.66666666666686Z" stroke="none" stroke-width="0.0" stroke-dasharray="none" opacity="1.0" fill="none"/><g id="ProcessOnG1178" transform="matrix(1.0,0.0,0.0,1.0,0.0,246.20833333333343)"><text id="ProcessOnText1179" fill="#000000" font-size="13" x="71.0" y="13.325" font-family="微软雅黑" font-weight="bold" font-style="normal" text-decoration="none" family="微软雅黑" text-anchor="end" size="13">compatible</text></g></g><g id="ProcessOnG1180" transform="matrix(1.0,0.0,0.0,1.0,431.50915127955506,461.21892403826837)" opacity="1.0"><path id="ProcessOnPath1181" d="M0.0 0.0L138.07418205377792 0.0L138.07418205377792 30.0L0.0 30.0Z" stroke="#323232" stroke-width="2.0" stroke-dasharray="none" opacity="1.0" fill="#ffffff"/><g id="ProcessOnG1182" transform="matrix(1.0,0.0,0.0,1.0,10.0,6.875)"><text id="ProcessOnText1183" fill="#000000" font-size="13" x="58.03709102688896" y="13.325" font-family="微软雅黑" font-weight="normal" font-style="normal" text-decoration="none" family="微软雅黑" text-anchor="middle" size="13">Sequence</text></g></g><g id="ProcessOnG1184" transform="matrix(1.0,0.0,0.0,1.0,709.0073336212831,461.21892403826814)" opacity="1.0"><path id="ProcessOnPath1185" d="M0.0 0.0L138.07418205377792 0.0L138.07418205377792 30.0L0.0 30.0Z" stroke="#323232" stroke-width="2.0" stroke-dasharray="none" opacity="1.0" fill="#ffffff"/><g id="ProcessOnG1186" transform="matrix(1.0,0.0,0.0,1.0,10.0,6.875)"><text id="ProcessOnText1187" fill="#000000" font-size="13" x="58.03709102688896" y="13.325" font-family="微软雅黑" font-weight="normal" font-style="normal" text-decoration="none" family="微软雅黑" text-anchor="middle" size="13">URI</text></g></g><g id="ProcessOnG1188" transform="matrix(1.0,0.0,0.0,1.0,570.2582424504186,461.21892403826837)" opacity="1.0"><path id="ProcessOnPath1189" d="M0.0 0.0L138.07418205377792 0.0L138.07418205377792 30.0L0.0 30.0Z" stroke="#323232" stroke-width="2.0" stroke-dasharray="none" opacity="1.0" fill="#ffffff"/><g id="ProcessOnG1190" transform="matrix(1.0,0.0,0.0,1.0,10.0,6.875)"><text id="ProcessOnText1191" fill="#000000" font-size="13" x="58.03709102688896" y="13.325" font-family="微软雅黑" font-weight="normal" font-style="normal" text-decoration="none" family="微软雅黑" text-anchor="middle" size="13">Message-Type</text></g></g></g></g></svg>